<svg width="272" height="197" viewBox="0 0 272 197" fill="none" xmlns="http://www.w3.org/2000/svg">
<g clip-path="url(#clip0_1600_3912)">
<path d="M180.416 121.85C180.416 155.472 174.51 185.899 164.971 207.911C160.201 218.918 154.529 227.809 148.242 233.945C141.957 240.08 135.071 243.449 127.864 243.449C120.657 243.449 113.771 240.08 107.486 233.945C101.199 227.809 95.5266 218.918 90.7571 207.911C81.2185 185.899 75.3125 155.472 75.3125 121.85C75.3125 88.2277 81.2185 57.8006 90.7571 35.7884C95.5266 24.7818 101.199 15.8905 107.486 9.75446C113.771 3.61949 120.657 0.25 127.864 0.25C135.071 0.25 141.957 3.61949 148.242 9.75446C154.529 15.8905 160.201 24.7818 164.971 35.7884C174.51 57.8006 180.416 88.2277 180.416 121.85Z" stroke="url(#paint0_linear_1600_3912)" stroke-width="0.5"/>
<path d="M188.533 121.85C188.533 155.472 182.627 185.899 173.088 207.911C168.319 218.918 162.646 227.809 156.359 233.945C150.074 240.08 143.188 243.449 135.981 243.449C128.774 243.449 121.888 240.08 115.603 233.945C109.317 227.809 103.644 218.918 98.8743 207.911C89.3356 185.899 83.4297 155.472 83.4297 121.85C83.4297 88.2277 89.3356 57.8006 98.8743 35.7884C103.644 24.7818 109.317 15.8905 115.603 9.75446C121.888 3.61949 128.774 0.25 135.981 0.25C143.188 0.25 150.074 3.61949 156.359 9.75446C162.646 15.8905 168.319 24.7818 173.088 35.7884C182.627 57.8006 188.533 88.2277 188.533 121.85Z" stroke="url(#paint1_linear_1600_3912)" stroke-width="0.5"/>
<path d="M196.662 121.85C196.662 155.472 190.756 185.899 181.217 207.911C176.448 218.918 170.775 227.809 164.488 233.945C158.203 240.08 151.317 243.449 144.11 243.449C136.903 243.449 130.017 240.08 123.732 233.945C117.445 227.809 111.773 218.918 107.003 207.911C97.4646 185.899 91.5586 155.472 91.5586 121.85C91.5586 88.2277 97.4646 57.8006 107.003 35.7884C111.773 24.7818 117.445 15.8905 123.732 9.75446C130.017 3.61949 136.903 0.25 144.11 0.25C151.317 0.25 158.203 3.61949 164.488 9.75446C170.775 15.8905 176.448 24.7818 181.217 35.7884C190.756 57.8006 196.662 88.2277 196.662 121.85Z" stroke="url(#paint2_linear_1600_3912)" stroke-width="0.5"/>
<path d="M158.205 83.3715C187.323 100.182 210.721 120.511 225.014 139.778C232.162 149.411 237.025 158.77 239.196 167.282C241.366 175.793 240.841 183.441 237.238 189.682C233.635 195.924 227.274 200.202 218.818 202.578C210.361 204.954 199.824 205.421 187.907 204.049C164.075 201.303 134.771 191.204 105.654 174.393C76.5363 157.582 53.1387 137.254 38.8448 117.987C31.6976 108.354 26.834 98.9951 24.6632 90.4828C22.4929 81.972 23.0178 74.3239 26.6212 68.0826C30.2246 61.8413 36.5856 57.5627 45.0413 55.1868C53.4986 52.8106 64.0351 52.3435 75.9518 53.7162C99.7843 56.4616 129.088 66.5605 158.205 83.3715Z" stroke="url(#paint3_linear_1600_3912)" stroke-width="0.5"/>
<path d="M162.264 76.3353C191.381 93.1463 214.779 113.475 229.073 132.741C236.22 142.375 241.084 151.734 243.255 160.246C245.425 168.757 244.9 176.405 241.297 182.646C237.693 188.887 231.332 193.166 222.876 195.542C214.419 197.918 203.883 198.385 191.966 197.013C168.134 194.267 138.83 184.168 109.712 167.357C80.5949 150.546 57.1973 130.218 42.9034 110.951C35.7562 101.317 30.8926 91.959 28.7218 83.4467C26.5515 74.9359 27.0764 67.2877 30.6798 61.0465C34.2832 54.8052 40.6442 50.5265 49.0999 48.1507C57.5572 45.7745 68.0937 45.3073 80.0104 46.6801C103.843 49.4255 133.146 59.5243 162.264 76.3353Z" stroke="url(#paint4_linear_1600_3912)" stroke-width="0.5"/>
<path d="M166.334 69.3017C195.452 86.1127 218.849 106.441 233.143 125.708C240.29 135.342 245.154 144.7 247.325 153.212C249.495 161.723 248.97 169.371 245.367 175.612C241.764 181.854 235.403 186.132 226.947 188.508C218.49 190.884 207.953 191.352 196.036 189.979C172.204 187.233 142.9 177.135 113.783 160.324C84.6652 143.513 61.2676 123.184 46.9737 103.917C39.8266 94.2837 34.9629 84.9253 32.7921 76.413C30.6218 67.9022 31.1467 60.254 34.7501 54.0128C38.3535 47.7715 44.7145 43.4928 53.1702 41.117C61.6275 38.7408 72.164 38.2736 84.0807 39.6464C107.913 42.3918 137.217 52.4907 166.334 69.3017Z" stroke="url(#paint5_linear_1600_3912)" stroke-width="0.5"/>
<path d="M113.799 83.3744C84.681 100.185 61.2833 120.514 46.9895 139.78C39.8423 149.414 34.9787 158.773 32.8079 167.285C30.6375 175.796 31.1625 183.444 34.7659 189.685C38.3693 195.927 44.7303 200.205 53.186 202.581C61.6433 204.957 72.1798 205.424 84.0964 204.052C107.929 201.306 137.233 191.207 166.35 174.396C195.468 157.585 218.865 137.257 233.159 117.99C240.306 108.356 245.17 98.998 247.341 90.4857C249.511 81.9749 248.986 74.3268 245.383 68.0855C241.779 61.8442 235.418 57.5656 226.963 55.1898C218.505 52.8135 207.969 52.3464 196.052 53.7191C172.22 56.4646 142.916 66.5634 113.799 83.3744Z" stroke="url(#paint6_linear_1600_3912)" stroke-width="0.5"/>
<path d="M109.74 76.3383C80.6224 93.1493 57.2248 113.478 42.9309 132.744C35.7837 142.378 30.9201 151.737 28.7493 160.249C26.579 168.76 27.1039 176.408 30.7073 182.649C34.3107 188.89 40.6717 193.169 49.1274 195.545C57.5847 197.921 68.1212 198.388 80.0379 197.015C103.87 194.27 133.174 184.171 162.291 167.36C191.409 150.549 214.807 130.221 229.1 110.954C236.248 101.32 241.111 91.9619 243.282 83.4496C245.452 74.9388 244.928 67.2907 241.324 61.0494C237.721 54.8081 231.36 50.5294 222.904 48.1536C214.447 45.7774 203.91 45.3103 191.994 46.683C168.161 49.4284 138.857 59.5273 109.74 76.3383Z" stroke="url(#paint7_linear_1600_3912)" stroke-width="0.5"/>
<path d="M105.67 69.3046C76.5521 86.1156 53.1544 106.444 38.8606 125.711C31.7134 135.344 26.8497 144.703 24.679 153.215C22.5086 161.726 23.0335 169.374 26.6369 175.615C30.2404 181.857 36.6014 186.135 45.0571 188.511C53.5144 190.887 64.0509 191.355 75.9675 189.982C99.8 187.236 129.104 177.138 158.221 160.327C187.339 143.516 210.736 123.187 225.03 103.92C232.177 94.2867 237.041 84.9282 239.212 76.4159C241.382 67.9051 240.857 60.257 237.254 54.0157C233.65 47.7744 227.289 43.4958 218.834 41.12C210.376 38.7437 199.84 38.2766 187.923 39.6493C164.091 42.3947 134.787 52.4936 105.67 69.3046Z" stroke="url(#paint8_linear_1600_3912)" stroke-width="0.5"/>
</g>
<defs>
<linearGradient id="paint0_linear_1600_3912" x1="127.864" y1="0" x2="129.163" y2="182.477" gradientUnits="userSpaceOnUse">
<stop stop-color="white"/>
<stop offset="1" stop-color="#0E0E11" stop-opacity="0"/>
</linearGradient>
<linearGradient id="paint1_linear_1600_3912" x1="135.981" y1="1.51376e-07" x2="138.901" y2="168.449" gradientUnits="userSpaceOnUse">
<stop stop-color="white"/>
<stop offset="1" stop-color="#0E0E11" stop-opacity="0"/>
</linearGradient>
<linearGradient id="paint2_linear_1600_3912" x1="144.11" y1="0" x2="146.77" y2="153.454" gradientUnits="userSpaceOnUse">
<stop stop-color="white"/>
<stop offset="1" stop-color="#0E0E11" stop-opacity="0"/>
</linearGradient>
<linearGradient id="paint3_linear_1600_3912" x1="135.181" y1="3.80538" x2="138.035" y2="168.451" gradientUnits="userSpaceOnUse">
<stop stop-color="white" stop-opacity="0"/>
<stop offset="0.0001" stop-color="white"/>
<stop offset="1" stop-color="#0E0E11" stop-opacity="0"/>
</linearGradient>
<linearGradient id="paint4_linear_1600_3912" x1="137.083" y1="-1.90693" x2="140.287" y2="182.944" gradientUnits="userSpaceOnUse">
<stop stop-color="white"/>
<stop offset="1" stop-color="#0E0E11" stop-opacity="0"/>
</linearGradient>
<linearGradient id="paint5_linear_1600_3912" x1="133.285" y1="-0.00305475" x2="136.083" y2="161.452" gradientUnits="userSpaceOnUse">
<stop stop-color="white"/>
<stop offset="1" stop-color="#0E0E11" stop-opacity="0"/>
</linearGradient>
<linearGradient id="paint6_linear_1600_3912" x1="135.202" y1="0.000535582" x2="131.866" y2="192.442" gradientUnits="userSpaceOnUse">
<stop stop-color="white"/>
<stop offset="1" stop-color="#0E0E11" stop-opacity="0"/>
</linearGradient>
<linearGradient id="paint7_linear_1600_3912" x1="137.108" y1="-0.000104886" x2="133.781" y2="191.942" gradientUnits="userSpaceOnUse">
<stop stop-color="white"/>
<stop offset="0.9999" stop-color="#101013" stop-opacity="0"/>
<stop offset="1" stop-color="#0E0E11"/>
<stop offset="1" stop-color="#0E0E11" stop-opacity="0"/>
</linearGradient>
<linearGradient id="paint8_linear_1600_3912" x1="137.098" y1="-0.0001344" x2="133.953" y2="181.445" gradientUnits="userSpaceOnUse">
<stop stop-color="white"/>
<stop offset="0.999249" stop-color="#0E0E11" stop-opacity="0"/>
</linearGradient>
<clipPath id="clip0_1600_3912">
<rect width="272" height="197" fill="white"/>
</clipPath>
</defs>
</svg>
