<svg xmlns="http://www.w3.org/2000/svg" width="1920" height="578" viewBox="0 0 1920 578" version="1.1"><path d="" stroke="none" fill="#ececec" fill-rule="evenodd"/><path d="M 11 283.500 L 11 553 72.796 553 L 134.591 553 258.514 515.482 C 326.671 494.847, 382.728 477.634, 383.085 477.232 C 383.442 476.829, 384.263 420.025, 384.910 351 C 385.662 270.790, 386.479 223.154, 387.174 219 C 392.173 189.143, 429.007 163.239, 483.708 151.110 C 510.504 145.168, 544.058 142.754, 571 144.829 L 584.500 145.868 589.328 151.184 C 592.015 154.143, 596.282 160.781, 598.953 166.157 C 606.888 182.128, 606.588 171.448, 604.643 368.834 C 603.707 463.800, 602.955 544.087, 602.971 547.250 L 603 553 663.750 552.968 L 724.500 552.935 760.500 515.450 C 780.300 494.832, 796.797 477.185, 797.161 476.232 C 797.525 475.279, 798.316 418.475, 798.921 350 C 799.582 275.082, 800.430 222.968, 801.049 219.141 C 805.889 189.248, 842.409 163.489, 897.500 151.113 C 920.098 146.037, 934.647 144.587, 963 144.587 C 991.353 144.587, 1005.902 146.037, 1028.500 151.113 C 1083.651 163.503, 1119.634 188.940, 1124.889 219.252 C 1125.774 224.360, 1125.819 248.111, 1125.074 316.752 C 1124.532 366.663, 1123.956 423.142, 1123.794 442.260 L 1123.500 477.019 1158.338 515.010 L 1193.176 553 1255.620 553 C 1304.662 553, 1318.162 552.732, 1318.523 551.750 C 1318.776 551.063, 1319.860 469.275, 1320.931 370 C 1322.547 220.244, 1323.132 188.202, 1324.366 181.876 C 1326.250 172.217, 1333.186 158.295, 1339.660 151.181 L 1344.500 145.862 1358 144.825 C 1374.112 143.588, 1402.866 144.377, 1419.500 146.511 C 1436.251 148.661, 1457.215 153.476, 1472.276 158.633 C 1512.113 172.274, 1538.123 195.035, 1541.832 219.500 C 1542.588 224.488, 1542.506 262.431, 1541.548 351.500 C 1540.808 420.250, 1540.519 476.840, 1540.907 477.256 C 1541.294 477.671, 1596.874 494.884, 1664.418 515.506 L 1787.226 553 1849.613 553 L 1912 553 1912 283.500 L 1912 14 961.500 14 L 11 14 11 283.500 M 17 283.500 L 17 550 73 550 L 129 550 129.054 540.750 C 129.084 535.663, 129.966 454.775, 131.014 361 C 132.541 224.432, 133.204 188.900, 134.346 182.459 C 135.361 176.734, 137.220 171.550, 140.801 164.459 C 173.539 99.626, 304.838 60.610, 433.500 77.482 C 516.793 88.405, 584.207 122.595, 605.307 164.617 C 613.757 181.448, 613.433 171.951, 611.589 348.500 C 610.705 433.200, 609.985 513.188, 609.991 526.250 L 610 550 664.290 550 L 718.580 550 720.322 372.146 C 722.305 169.619, 721.743 181.454, 730.182 164.637 C 758.893 107.424, 867.057 68.660, 983.137 73.983 C 1070.753 78.001, 1146.329 105.318, 1181.500 145.683 C 1188.053 153.203, 1191.711 158.497, 1194.953 165.152 C 1203.160 181.995, 1202.830 171.175, 1200.867 359.500 C 1199.920 450.250, 1199.113 530.237, 1199.073 537.250 L 1199 550 1255.500 550 C 1286.575 550, 1312.023 549.888, 1312.052 549.750 C 1312.081 549.612, 1312.955 469.400, 1313.994 371.500 C 1316.135 169.935, 1315.634 180.663, 1323.666 164.669 C 1344.847 122.496, 1412.015 88.417, 1495.500 77.486 C 1563.485 68.584, 1633.859 74.871, 1692.347 95.072 C 1740.076 111.556, 1774.090 136.326, 1788.378 165.001 C 1796.939 182.182, 1796.568 170.360, 1794.631 364.207 C 1793.706 456.768, 1792.961 536.438, 1792.975 541.250 L 1793 550 1849.500 550 L 1906 550 1906 283.500 L 1906 17 961.500 17 L 17 17 17 283.500 M 352.738 77.927 L 345.976 78.500 434.293 109.750 C 521.631 140.654, 522.697 141, 530.505 141 C 534.847 141, 537.972 140.624, 537.450 140.165 C 536.927 139.706, 499.483 125.306, 454.240 108.165 C 363.465 73.774, 371.939 76.298, 352.738 77.927 M 938.750 77.746 C 929.833 78.013, 928 78.333, 928 79.621 C 928 81.080, 937.378 133.700, 938.565 138.897 C 939.110 141.287, 939.136 141.292, 949.240 140.630 C 954.810 140.265, 959.413 139.861, 959.470 139.733 C 959.526 139.605, 959.400 125.438, 959.189 108.250 L 958.807 77 954.153 77.212 C 951.594 77.329, 944.663 77.569, 938.750 77.746 M 966 108.364 L 966 139.715 972.147 140.358 C 975.527 140.711, 980.232 141, 982.601 141 C 986.679 141, 986.939 140.826, 987.473 137.750 C 990.352 121.155, 997.035 78.714, 996.800 78.522 C 996.635 78.388, 989.638 77.994, 981.250 77.646 L 966 77.014 966 108.364 M 1474.292 108.331 C 1429.078 125.519, 1391.766 139.901, 1391.376 140.291 C 1390.986 140.681, 1394.185 141, 1398.486 141 C 1406.195 141, 1407.562 140.556, 1494.629 109.750 L 1582.952 78.500 1575.726 77.881 C 1557.009 76.277, 1564.643 73.985, 1474.292 108.331 M 389.500 78.956 C 390.600 79.412, 427.050 93.275, 470.500 109.763 C 540.645 136.382, 550.326 139.807, 556.868 140.323 C 560.921 140.642, 564.071 140.753, 563.868 140.568 C 563.666 140.384, 528.747 126.230, 486.272 109.116 L 409.044 78 398.272 78.063 C 391.571 78.103, 388.256 78.440, 389.500 78.956 M 1444 108.533 C 1402.475 125.286, 1367.600 139.404, 1366.500 139.908 C 1365.188 140.508, 1367.082 140.635, 1372 140.277 C 1378.779 139.783, 1387.098 136.847, 1458.500 109.751 C 1501.950 93.263, 1538.400 79.402, 1539.500 78.950 C 1540.724 78.446, 1537.233 78.117, 1530.500 78.101 L 1519.500 78.074 1444 108.533 M 318.823 80.395 C 314.051 81.003, 309.902 81.749, 309.604 82.052 C 309.306 82.356, 351.321 96.449, 402.972 113.369 L 496.883 144.133 503.941 143.437 C 507.824 143.055, 511 142.428, 511 142.046 C 511 141.663, 471.288 127.310, 422.750 110.150 C 363.261 89.119, 333.359 79.006, 331 79.120 C 329.075 79.213, 323.595 79.787, 318.823 80.395 M 904.250 80.809 C 896.987 81.719, 892 82.789, 892 83.437 C 892 84.039, 896.682 97.799, 902.404 114.015 C 909.085 132.950, 913.290 143.497, 914.154 143.492 C 919.907 143.460, 932 141.665, 932 140.844 C 932 139.928, 922.769 88.458, 921.402 81.750 C 920.755 78.577, 921.674 78.627, 904.250 80.809 M 1003.545 81.130 C 1002.748 84.548, 994 138.913, 994 140.451 C 994 141.296, 996.157 141.973, 1000.250 142.411 C 1003.688 142.779, 1007.912 143.328, 1009.637 143.630 L 1012.773 144.180 1022.991 113.527 C 1028.610 96.669, 1033.049 82.746, 1032.854 82.588 C 1032.659 82.431, 1027.775 81.758, 1022 81.093 C 1016.225 80.428, 1009.835 79.631, 1007.799 79.322 C 1004.512 78.823, 1004.037 79.025, 1003.545 81.130 M 1505.750 110.211 C 1457.487 127.319, 1418 141.638, 1418 142.029 C 1418 142.421, 1421.166 143.054, 1425.036 143.435 L 1432.072 144.128 1526.001 113.362 C 1577.661 96.440, 1619.714 82.380, 1619.451 82.118 C 1618.832 81.499, 1600.410 79.067, 1596.500 79.088 C 1594.850 79.097, 1554.013 93.103, 1505.750 110.211 M 430.500 81.882 C 436.255 84.438, 576.877 140.890, 579 141.496 C 581.499 142.209, 581.499 142.208, 579.500 140.216 C 577.365 138.089, 450.893 84.237, 445 82.946 C 439.258 81.689, 428.245 80.880, 430.500 81.882 M 1488.328 82.134 C 1483.846 82.778, 1468.653 88.722, 1432.828 103.849 C 1405.698 115.304, 1376.562 127.536, 1368.082 131.031 C 1359.601 134.526, 1351.501 138.449, 1350.082 139.749 L 1347.500 142.113 1350 141.442 C 1351.803 140.958, 1458.999 98.007, 1498.500 81.940 C 1500.159 81.265, 1499.989 81.137, 1497.500 81.187 C 1495.850 81.220, 1491.723 81.646, 1488.328 82.134 M 282.500 86.433 C 274.800 88.211, 267.940 89.854, 267.255 90.083 C 266.571 90.312, 311.451 103.959, 366.989 120.410 L 467.967 150.319 476.734 148.520 C 481.555 147.530, 486.013 146.445, 486.639 146.110 C 487.560 145.617, 301.619 83.869, 297.649 83.349 C 297.017 83.267, 290.200 84.654, 282.500 86.433 M 1535.850 114.358 C 1483.793 131.486, 1441.718 145.774, 1442.350 146.110 C 1442.983 146.445, 1447.448 147.530, 1452.273 148.521 L 1461.047 150.322 1561.937 120.411 C 1617.426 103.960, 1662.743 90.415, 1662.641 90.311 C 1662.415 90.080, 1630.701 82.955, 1630.583 83.108 C 1630.537 83.168, 1587.908 97.230, 1535.850 114.358 M 867.500 87.443 C 859.800 89.216, 852.975 90.854, 852.333 91.083 C 851.629 91.335, 857.520 102.814, 867.173 120 C 875.978 135.675, 883.480 148.817, 883.846 149.205 C 884.511 149.911, 904.552 145.781, 905.613 144.721 C 906.036 144.297, 889.773 96.674, 885.475 85.750 C 884.605 83.541, 884.343 83.566, 867.500 87.443 M 1039.694 84.750 C 1038.248 87.307, 1019.900 144.233, 1020.370 144.704 C 1021.437 145.771, 1041.481 149.920, 1042.119 149.205 C 1043.911 147.198, 1073.153 91.820, 1072.674 91.341 C 1072.198 90.865, 1042.840 84.132, 1040.809 84.034 C 1040.429 84.015, 1039.927 84.338, 1039.694 84.750 M 475.500 90.394 C 477.150 91.118, 497.400 99.699, 520.500 109.463 C 543.600 119.227, 562.950 127.432, 563.500 127.695 C 564.050 127.958, 563.375 127.244, 562 126.108 C 558.849 123.504, 558.160 123.181, 519.040 105.988 C 490.147 93.290, 478.892 89.063, 474 89.075 C 473.175 89.077, 473.850 89.670, 475.500 90.394 M 1447.431 90.463 C 1441.075 92.020, 1373.742 121.499, 1369 124.801 C 1367.075 126.141, 1366.175 126.999, 1367 126.708 C 1369.798 125.718, 1392.391 116.274, 1422.500 103.508 C 1439 96.512, 1453.400 90.415, 1454.500 89.958 L 1456.500 89.127 1454.500 89.174 C 1453.400 89.200, 1450.219 89.780, 1447.431 90.463 M 243.599 97.072 C 235.988 99.731, 229.628 102.040, 229.466 102.203 C 229.305 102.366, 277.171 115.224, 335.836 130.776 L 442.500 159.053 451.990 155.856 C 457.210 154.099, 461.035 152.523, 460.490 152.355 C 459.282 151.982, 268.337 95.440, 261.969 93.569 C 257.566 92.275, 257.046 92.374, 243.599 97.072 M 1570.500 122.051 C 1515.500 138.452, 1469.825 152.033, 1469 152.230 C 1468.175 152.427, 1471.775 154.040, 1477 155.814 L 1486.500 159.040 1593.166 130.770 C 1651.832 115.222, 1699.307 102.214, 1698.666 101.865 C 1697.320 101.132, 1670.938 91.942, 1670.675 92.115 C 1670.579 92.178, 1625.500 105.649, 1570.500 122.051 M 829.218 98.254 C 816.351 102.773, 815.074 103.431, 816.335 104.885 C 817.105 105.773, 826.633 117.975, 837.508 132 C 848.384 146.025, 857.469 157.713, 857.697 157.973 C 857.926 158.233, 862.576 156.935, 868.030 155.089 L 877.948 151.732 874.527 145.616 C 852.531 106.288, 845.205 93.587, 844.425 93.427 C 843.916 93.322, 837.073 95.495, 829.218 98.254 M 1069.742 111.275 C 1064.375 121.299, 1057.277 134.522, 1053.969 140.660 L 1047.954 151.820 1057.452 154.984 C 1062.676 156.725, 1067.403 157.869, 1067.955 157.528 C 1069.701 156.449, 1109.189 103.855, 1108.654 103.321 C 1108.206 102.873, 1086.815 95.258, 1081.500 93.654 C 1079.759 93.129, 1078.238 95.407, 1069.742 111.275 M 208.880 111.340 L 197.260 117.515 308.778 143.694 L 420.296 169.873 428.398 165.784 C 432.854 163.535, 436.050 161.553, 435.500 161.380 C 429.603 159.524, 222.659 105.022, 221.741 105.083 C 221.059 105.128, 215.271 107.944, 208.880 111.340 M 1600 133.042 C 1542.525 148.363, 1494.825 161.060, 1494 161.258 C 1493.175 161.456, 1496.136 163.470, 1500.580 165.734 L 1508.659 169.851 1620.292 143.676 L 1731.924 117.500 1719.712 111.302 C 1712.995 107.893, 1706.825 105.122, 1706 105.145 C 1705.175 105.167, 1657.475 117.721, 1600 133.042 M 796.500 112.302 L 784.500 118.500 810.138 143.817 L 835.777 169.135 843.888 165.056 C 848.350 162.813, 852 160.764, 852 160.502 C 852 159.570, 809.897 106.001, 809.205 106.052 C 808.817 106.081, 803.100 108.893, 796.500 112.302 M 1094.500 132.662 C 1083.500 147.268, 1074.357 159.599, 1074.182 160.064 C 1073.934 160.721, 1088.855 169, 1090.287 169 C 1090.470 169, 1101.753 157.540, 1115.360 143.533 L 1140.102 118.066 1128.066 112.033 C 1121.447 108.715, 1115.686 106.024, 1115.265 106.053 C 1114.844 106.082, 1105.500 118.056, 1094.500 132.662 M 181.589 127.544 C 175.411 132.155, 172.210 135.128, 173.089 135.441 C 175.495 136.295, 399.629 182, 401.414 182 C 403.619 182, 415.228 173.803, 414.252 172.936 C 413.838 172.568, 364 160.673, 303.500 146.503 C 243 132.332, 193.050 120.605, 192.500 120.443 C 191.950 120.280, 187.040 123.476, 181.589 127.544 M 1625.689 146.367 C 1564.743 160.740, 1514.970 172.950, 1515.083 173.500 C 1515.195 174.050, 1517.810 176.321, 1520.893 178.547 L 1526.500 182.595 1641.500 158.909 C 1704.750 145.883, 1756.682 135.174, 1756.905 135.112 C 1757.128 135.050, 1752.730 131.625, 1747.131 127.500 C 1741.532 123.375, 1736.850 120.052, 1736.726 120.117 C 1736.602 120.181, 1686.635 131.993, 1625.689 146.367 M 769.285 128.796 C 764.217 132.483, 760.054 135.732, 760.035 136.017 C 759.983 136.787, 816.704 181, 817.744 181 C 818.500 181, 828.042 174.292, 829.830 172.503 C 830.553 171.780, 780.889 121.983, 779.508 122.046 C 778.953 122.071, 774.353 125.109, 769.285 128.796 M 1119.609 146.891 L 1094.732 171.782 1101.066 176.391 C 1104.550 178.926, 1107.767 181, 1108.216 181 C 1108.664 181, 1121.637 170.907, 1137.044 158.571 L 1165.057 136.141 1155.526 129.071 C 1150.284 125.182, 1145.655 122, 1145.240 122 C 1144.825 122, 1133.291 133.201, 1119.609 146.891 M 160.623 146.400 C 156.980 150.469, 154 154.191, 154 154.669 C 154 155.148, 206.969 164.825, 271.708 176.174 L 389.417 196.808 393.458 192.217 C 395.681 189.691, 397.500 187.161, 397.500 186.593 C 397.500 185.710, 173.401 139.080, 168.873 139.021 C 167.977 139.010, 164.265 142.330, 160.623 146.400 M 1643.757 162.445 C 1581.749 175.209, 1530.834 185.843, 1530.614 186.076 C 1530.393 186.309, 1532.302 188.821, 1534.856 191.659 L 1539.500 196.818 1657.250 176.169 C 1722.013 164.813, 1775 155.134, 1775 154.660 C 1775 154.187, 1772.020 150.469, 1768.377 146.400 C 1763.155 140.565, 1761.199 139.025, 1759.127 139.119 C 1757.682 139.184, 1705.766 149.681, 1643.757 162.445 M 748.975 147.586 C 745.414 151.758, 742.392 155.471, 742.260 155.836 C 742.128 156.201, 756.030 165.329, 773.154 176.121 L 804.288 195.742 808.697 190.779 C 811.121 188.049, 812.969 185.426, 812.803 184.951 C 812.520 184.146, 756.528 140, 755.789 140 C 755.603 140, 752.537 143.414, 748.975 147.586 M 1141.002 161.954 C 1125.879 174.072, 1113.367 184.398, 1113.200 184.901 C 1113.032 185.404, 1114.873 188.043, 1117.292 190.765 L 1121.688 195.716 1152.308 176.108 C 1169.150 165.324, 1182.932 156.275, 1182.936 156 C 1182.939 155.725, 1179.693 151.995, 1175.721 147.710 L 1168.500 139.921 1141.002 161.954 M 146.851 166.251 L 143.263 173.502 261.881 191.405 C 327.122 201.252, 380.967 209.475, 381.538 209.680 C 382.460 210.010, 387.533 201.148, 386.796 200.497 C 386.541 200.271, 151.845 159, 150.818 159 C 150.610 159, 148.824 162.263, 146.851 166.251 M 1659 179.712 C 1594.925 191, 1542.367 200.353, 1542.204 200.497 C 1541.466 201.149, 1546.540 210.009, 1547.462 209.677 C 1548.033 209.471, 1601.878 201.247, 1667.118 191.401 L 1785.735 173.500 1782.148 166.250 C 1779.933 161.771, 1777.976 159.036, 1777.031 159.094 C 1776.189 159.146, 1723.075 168.423, 1659 179.712 M 1155.798 179.437 C 1139.462 189.960, 1125.779 198.887, 1125.392 199.275 C 1124.619 200.048, 1127.889 208, 1128.980 208 C 1129.619 208, 1190.995 175.187, 1191.951 174.333 C 1192.200 174.112, 1190.850 170.864, 1188.951 167.117 L 1185.500 160.303 1155.798 179.437 M 735.792 167.468 C 734.038 171.025, 732.804 174.132, 733.051 174.371 C 733.903 175.198, 796.105 208, 796.802 207.990 C 797.920 207.974, 801.093 199.683, 800.258 198.960 C 798.735 197.643, 740.165 161, 739.582 161 C 739.252 161, 737.546 163.911, 735.792 167.468 M 141.102 183.338 C 139.724 191.250, 139.720 193, 141.080 193 C 141.673 193, 195.482 199.791, 260.655 208.091 C 325.828 216.391, 379.340 222.993, 379.571 222.762 C 379.802 222.531, 380.279 220.240, 380.632 217.671 C 381.127 214.059, 380.959 213, 379.893 213 C 378.296 213, 147.571 178.223, 144.352 177.497 C 142.409 177.059, 142.098 177.619, 141.102 183.338 M 1695.500 190.937 C 1646 198.486, 1592.513 206.621, 1576.639 209.015 L 1547.778 213.366 1548.393 217.854 C 1548.732 220.322, 1549.199 222.532, 1549.431 222.764 C 1549.663 222.997, 1603.153 216.395, 1668.296 208.093 C 1733.440 199.792, 1787.248 193, 1787.870 193 C 1788.491 193, 1789 192.249, 1789 191.332 C 1789 188.059, 1786.783 177.002, 1786.147 177.105 C 1785.791 177.163, 1745 183.388, 1695.500 190.937 M 730.116 186.125 C 729.467 190.055, 729.063 193.356, 729.218 193.462 C 729.373 193.568, 743.900 199.984, 761.500 207.719 C 791.926 221.092, 793.532 221.678, 794.150 219.642 C 794.508 218.464, 794.836 216.375, 794.880 215 C 794.965 212.349, 796.728 213.366, 743.898 185.603 L 731.296 178.980 730.116 186.125 M 1161.751 195.896 C 1128.628 213.782, 1129.780 212.868, 1131.850 219.623 C 1132.466 221.636, 1133.927 221.105, 1160 209.399 C 1175.125 202.608, 1189.344 196.179, 1191.599 195.113 L 1195.697 193.173 1194.599 186.660 C 1193.994 183.078, 1193.275 179.955, 1193 179.720 C 1192.725 179.485, 1178.663 186.764, 1161.751 195.896 M 139.017 212.750 C 139.026 221.412, 138.299 300.185, 137.400 387.800 C 136.502 475.415, 135.982 547.315, 136.245 547.578 C 136.783 548.116, 375.115 476.182, 376.189 475.157 C 376.985 474.398, 379.600 228.267, 378.820 227.487 C 378.284 226.950, 144.709 197, 141.061 197 C 139.066 197, 139.001 197.506, 139.017 212.750 M 1666.574 212.083 C 1602.815 220.261, 1550.366 227.408, 1550.021 227.966 C 1549.459 228.875, 1546.727 475.216, 1547.275 475.499 C 1548.887 476.333, 1785.335 547.999, 1785.600 547.734 C 1785.802 547.531, 1786.646 479.446, 1787.476 396.433 C 1788.305 313.420, 1789.100 234.587, 1789.242 221.249 L 1789.500 196.999 1786 197.107 C 1784.075 197.167, 1730.333 203.906, 1666.574 212.083 M 728.946 198.299 C 728.828 198.737, 725.269 543.510, 725.381 543.659 C 725.446 543.746, 740.167 528.561, 758.093 509.914 L 790.685 476.012 791.338 414.756 C 791.698 381.065, 792.287 324.925, 792.648 290 L 793.305 226.500 771.903 217.080 C 760.131 211.899, 745.663 205.509, 739.750 202.880 C 733.837 200.250, 728.976 198.189, 728.946 198.299 M 1164.350 212.235 L 1133.200 226.228 1132.617 241.364 C 1132.296 249.689, 1131.798 291.600, 1131.510 334.500 C 1131.222 377.400, 1130.704 426.679, 1130.359 444.008 L 1129.732 475.516 1160.590 509.201 C 1177.562 527.728, 1191.653 542.680, 1191.905 542.429 C 1192.312 542.021, 1196.063 198.687, 1195.663 198.371 C 1195.574 198.299, 1181.482 204.538, 1164.350 212.235" stroke="none" fill="#f4f4f4" fill-rule="evenodd"/></svg>